{"title":"15.Till.Midnight.2010.DVDRiP.XviD-SiC","uid":6464906,"size":1086311379,"categoryP":"video","categoryS":"movies","magnet":"?xt=urn:btih:50ff11d48030742b49a20698482a7cecef77aa18&amp;dn=15.Till.Midnight.2010.DVDRiP.XviD-SiC&amp;tr=udp%3A%2F%2Ftracker.openbittorrent.com%3A80&amp;tr=udp%3A%2F%2Fopen.demonii.com%3A1337&amp;tr=udp%3A%2F%2Ftracker.coppersurfer.tk%3A6969&amp;tr=udp%3A%2F%2Fexodus.desync.com%3A6969","seeders":1,"leechers":0,"uploader":"sceneline","files":5,"time":1307927932,"description":"- &lt;a href=&quot;\nhttp://www.Speed.Cd&quot; rel=&quot;nofollow&quot; target=&quot;_NEW&quot;&gt;\nhttp://www.Speed.Cd&lt;/a&gt; \n       &lt;a href=&quot;\nhttp://www.Speed.Cd&quot; rel=&quot;nofollow&quot; target=&quot;_NEW&quot;&gt;\nhttp://www.Speed.Cd&lt;/a&gt;       the fast  and The Hottest Private Tracker on the net\n\n(((--Registration will be open on june every weekend--)))\n\nPlease Seed back to make the speed Faster!!!\n\n------------------nfo--------------------------\n-\n\n\n\n\n\n\n\n\n\n\n\n\n\n\n\n\n\n\n\n\n\n\n\n\n\n\n\n\n\n\n\n\n\n\n\n\n\n\n\n\n          \n          \n              \n              \n                    \n                    \n                    \n                    \n\n15.Till.Midnight.2010.DVDRiP.XviD-SiC\n\nPoster:\n[img]http://leetleech.org/images/94858943730782607337.jpg[/img]\n\nIMDB Link:\nhttp://www.imdb.com/title/tt1568798/\n\nDescription:\nParallel worlds collide as a secret society policing this phenomena track a man whose wife has seemingly disappeared. \n\nGeneral\nComplete name                    : 15.Till.Midnight.2010.DVDRiP.XviD-SiC.avi\nFormat                           : AVI\nFormat/Info                      : Audio Video Interleave\nFile size                        : 1.00 GiB\nDuration                         : 1h 49mn\nOverall bit rate                 : 1 310 Kbps\nWriting application              : VirtualDubMod 1.5.4.1 (build 2178/release)\nWriting library                  : VirtualDubMod build 2178/release\n\nVideo\nID                               : 0\nFormat                           : MPEG-4 Visual\nFormat profile                   : Advanced Simple@L5\nFormat settings, BVOP            : 1\nFormat settings, QPel            : No\nFormat settings, GMC             : No warppoints\nFormat settings, Matrix          : Custom\nCodec ID                         : XVID\nCodec ID/Hint                    : XviD\nDuration                         : 1h 49mn\nBit rate                         : 855 Kbps\nWidth                            : 720 pixels\nHeight                           : 304 pixels\nDisplay aspect ratio             : 2.35:1\nFrame rate                       : 23.976 fps\nColor space                      : YUV\nChroma subsampling               : 4:2:0\nBit depth                        : 8 bits\nScan type                        : Progressive\nCompression mode                 : Lossy\nBits/(Pixel*Frame)               : 0.163\nStream size                      : 669 MiB (65%)\nWriting library                  : XviD 63\n\nAudio\nID                               : 1\nFormat                           : AC-3\nFormat/Info                      : Audio Coding 3\nMode extension                   : CM (complete main)\nCodec ID                         : 2000\nDuration                         : 1h 49mn\nBit rate mode                    : Constant\nBit rate                         : 448 Kbps\nChannel(s)                       : 2 channels\nChannel positions                : Front: L R\nSampling rate                    : 48.0 KHz\nBit depth                        : 16 bits\nCompression mode                 : Lossy\nStream size                      : 350 MiB (34%)\nAlignment                        : Split accross interleaves\nInterleave, duration             : 96 ms (2.30 video frames)\nInterleave, preload duration     : 96 ms\n\n\n\n\nScreenshots:\n[img]http://leetleech.org/images/70802063847805710114.png[/img]\n[img]http://leetleech.org/images/39255632252874365479.png[/img]\n[img]http://leetleech.org/images/26998689169778238372.png[/img]\n[img]http://leetleech.org/images/72590332340455626240.png[/img]\n[img]http://leetleech.org/images/36157840849357032979.png[/img]\n\nNote: N/A\n\nEncoder: thefuzz\n\nEnjoy!\n\nRespects to CaptainHomey, Cyanide, CM8, Rx, Pirate666, THC, ELEKTRI4KA, Killerhz, \nXtremE, PA, YeFsTe and everyone in the struggle...","torrent":{"xt":"urn:btih:50ff11d48030742b49a20698482a7cecef77aa18","amp;dn":"15.Till.Midnight.2010.DVDRiP.XviD-SiC","amp;tr":["udp%3A%2F%2Ftracker.openbittorrent.com%3A80","udp%3A%2F%2Fopen.demonii.com%3A1337","udp%3A%2F%2Ftracker.coppersurfer.tk%3A6969","udp%3A%2F%2Fexodus.desync.com%3A6969"],"infoHash":"50ff11d48030742b49a20698482a7cecef77aa18","infoHashBuffer":{"type":"Buffer","data":[80,255,17,212,128,48,116,43,73,162,6,152,72,42,124,236,239,119,170,24]},"announce":[],"urlList":[]}}